<?xml version="1.0" encoding="UTF-8"?>
<svg id="svg1" width="16" height="16" gpa:keywords="media-view-subtitles sub srt video screen" gpa:state="1" gpa:version="1" version="1.1" xmlns="http://www.w3.org/2000/svg" xmlns:gpa="https://www.gtk.org/grappa">
 <path id="path4" d="m3 1c-1.645 0-3 1.355-3 3v8c0 1.645 1.355 3 3 3h10c1.645 0 3-1.355 3-3v-8c0-1.645-1.355-3-3-3h-10zm0 8h4v0.5 0.5h-4v-0.5-0.5zm5 0h3v0.5 0.5h-3v-0.5-0.5zm4 0h1v0.5 0.5h-1v-0.5-0.5zm-9 2h2v0.5 0.5h-2v-0.5-0.5zm3 0h3v0.5 0.5h-3v-0.5-0.5zm4 0h3v0.5 0.5h-3v-0.5-0.5z" stop-color="#000000" stroke-linecap="round" stroke-linejoin="round"/>
</svg>
